<svg xmlns="http://www.w3.org/2000/svg" width="64" height="65" viewBox="0 0 64 65" fill="none">
  <path d="M32.0007 51.1663C37.8917 51.1663 42.6673 46.3907 42.6673 40.4997C42.6673 34.6086 37.8917 29.833 32.0007 29.833C26.1096 29.833 21.334 34.6086 21.334 40.4997C21.334 46.3907 26.1096 51.1663 32.0007 51.1663Z" stroke="#333333" stroke-width="1.5" stroke-miterlimit="10" stroke-linecap="round" stroke-linejoin="round"/>
  <path d="M32.6673 37.167V39.647C32.6673 40.5803 32.1873 41.4603 31.3607 41.9403L29.334 43.167" stroke="#333333" stroke-width="1.5" stroke-miterlimit="10" stroke-linecap="round" stroke-linejoin="round"/>
  <path d="M23.9995 59.1663H39.9995C50.7195 59.1663 52.6395 54.873 53.1995 49.6463L55.1995 33.6463C55.9195 27.1397 54.0529 21.833 42.6662 21.833H21.3329C9.94621 21.833 8.07954 27.1397 8.79954 33.6463L10.7995 49.6463C11.3595 54.873 13.2795 59.1663 23.9995 59.1663Z" stroke="#333333" stroke-width="1.5" stroke-miterlimit="10" stroke-linecap="round" stroke-linejoin="round"/>
  <path d="M20 20.9534V18.3667C20 12.3667 24.8267 6.47336 30.8267 5.91336C37.9733 5.22002 44 10.8467 44 17.86V21.54" stroke="#333333" stroke-width="1.5" stroke-miterlimit="10" stroke-linecap="round" stroke-linejoin="round"/>
</svg>