<svg xmlns="http://www.w3.org/2000/svg" width="40" height="41" viewBox="0 0 40 41" fill="none">
  <g clip-path="url(#clip0_535_22980)">
    <path d="M23.3342 18.8333C23.3342 18.8333 33.4242 17.0833 33.3342 11.3333C33.2709 7.46 29.1926 6.01667 28.3076 8.83333C28.3076 8.83333 27.4709 5.5 24.9576 5.5C22.4442 5.5 19.9842 10.5 23.3342 18.8333Z" stroke="#E31E25" stroke-width="1.5" stroke-linecap="round" stroke-linejoin="round"/>
    <path d="M23.2979 18.8333C23.2979 18.8333 33.4229 17.0833 33.3312 11.3333C33.2679 7.46 29.1762 6.01667 28.2895 8.83333C28.2895 8.83333 27.4479 5.5 24.9279 5.5C22.4062 5.5 19.9279 10.5 23.2995 18.8333H23.2979Z" stroke="#E31E25" stroke-width="1.5" stroke-linecap="round" stroke-linejoin="round"/>
    <path d="M21.666 23.7998L21.7693 24.3148L21.9043 24.8981L22.0293 25.3815L22.1827 25.9281L22.366 26.5248L22.4677 26.8381L22.6993 27.4915C23.766 30.3748 25.7677 33.8865 29.166 33.8331C33.0393 33.7698 34.4827 29.6781 31.666 28.7915L31.9127 28.7165L32.1877 28.6198C32.2424 28.5988 32.2968 28.5772 32.351 28.5548L32.721 28.3915C33.6977 27.9248 34.9993 27.0048 34.9993 25.4298C34.9993 22.9081 29.9993 20.4298 21.666 23.8015V23.7998Z" stroke="#E31E25" stroke-width="1.5" stroke-linecap="round" stroke-linejoin="round"/>
    <path d="M16.6999 22.167L16.1849 22.2703L15.6016 22.4053L15.1183 22.5303L14.5716 22.6837L13.9749 22.867L13.6616 22.9687L13.0083 23.2003C10.1249 24.267 6.61328 26.267 6.66662 29.667C6.72995 33.5403 10.8216 34.9837 11.7083 32.167L11.7833 32.4137L11.8799 32.6887L11.9449 32.852L12.1083 33.222C12.5749 34.1987 13.4949 35.5003 15.0699 35.5003C17.5916 35.5003 20.0699 30.5003 16.6983 22.167H16.6999Z" stroke="#E31E25" stroke-width="1.5" stroke-linecap="round" stroke-linejoin="round"/>
    <path d="M18.3333 17.2009L18.23 16.6859L18.095 16.1026L17.97 15.6192L17.8167 15.0726L17.6333 14.4759L17.42 13.8392L17.1733 13.1742C16.0767 10.3626 14.1 7.11756 10.8333 7.16756C6.96 7.2309 5.51667 11.3226 8.33333 12.2092L8.08667 12.2842L7.81333 12.3809C7.7575 12.4018 7.70194 12.4235 7.64667 12.4459L7.28 12.6092C6.3 13.0759 5 13.9959 5 15.5709C5 18.0926 10 20.5709 18.3333 17.1992V17.2009Z" stroke="#E31E25" stroke-width="1.5" stroke-linecap="round" stroke-linejoin="round"/>
  </g>
  <defs>
    <clipPath id="clip0_535_22980">
      <rect width="40" height="40" fill="white" transform="translate(0 0.5)"/>
    </clipPath>
  </defs>
</svg>