<svg xmlns="http://www.w3.org/2000/svg" width="25" height="24" viewBox="0 0 25 24" fill="none">
  <g clip-path="url(#clip0_535_23139)">
    <path d="M12.295 21H5.5C4.96957 21 4.46086 20.7893 4.08579 20.4142C3.71071 20.0391 3.5 19.5304 3.5 19V7C3.5 6.46957 3.71071 5.96086 4.08579 5.58579C4.46086 5.21071 4.96957 5 5.5 5H17.5C18.0304 5 18.5391 5.21071 18.9142 5.58579C19.2893 5.96086 19.5 6.46957 19.5 7V11" stroke="#E31E25" stroke-width="1.5" stroke-linecap="round" stroke-linejoin="round"/>
    <path d="M14.5 18C14.5 19.0609 14.9214 20.0783 15.6716 20.8284C16.4217 21.5786 17.4391 22 18.5 22C19.5609 22 20.5783 21.5786 21.3284 20.8284C22.0786 20.0783 22.5 19.0609 22.5 18C22.5 16.9391 22.0786 15.9217 21.3284 15.1716C20.5783 14.4214 19.5609 14 18.5 14C17.4391 14 16.4217 14.4214 15.6716 15.1716C14.9214 15.9217 14.5 16.9391 14.5 18Z" stroke="#E31E25" stroke-width="1.5" stroke-linecap="round" stroke-linejoin="round"/>
    <path d="M15.5 3V7" stroke="#E31E25" stroke-width="1.5" stroke-linecap="round" stroke-linejoin="round"/>
    <path d="M7.5 3V7" stroke="#E31E25" stroke-width="1.5" stroke-linecap="round" stroke-linejoin="round"/>
    <path d="M3.5 11H19.5" stroke="#E31E25" stroke-width="1.5" stroke-linecap="round" stroke-linejoin="round"/>
    <path d="M18.5 16.4961V18.0001L19.5 19.0001" stroke="#E31E25" stroke-width="1.5" stroke-linecap="round" stroke-linejoin="round"/>
  </g>
  <defs>
    <clipPath id="clip0_535_23139">
      <rect width="24" height="24" fill="white" transform="translate(0.5)"/>
    </clipPath>
  </defs>
</svg>