<svg xmlns="http://www.w3.org/2000/svg" width="25" height="25" viewBox="0 0 25 25" fill="none">
  <path d="M22.5 6.75V11.85C22.5 13.12 22.08 14.19 21.33 14.93C20.59 15.68 19.52 16.1 18.25 16.1V17.91C18.25 18.59 17.49 19 16.93 18.62L15.96 17.98C16.05 17.67 16.09 17.33 16.09 16.97V12.9C16.09 10.86 14.73 9.5 12.69 9.5H5.89999C5.75999 9.5 5.63 9.51002 5.5 9.52002V6.75C5.5 4.2 7.2 2.5 9.75 2.5H18.25C20.8 2.5 22.5 4.2 22.5 6.75Z" stroke="#808080" stroke-width="1.5" stroke-miterlimit="10" stroke-linecap="round" stroke-linejoin="round"/>
  <path d="M16.09 12.9V16.97C16.09 17.33 16.05 17.67 15.96 17.98C15.59 19.45 14.37 20.37 12.69 20.37H9.97L6.95 22.38C6.5 22.69 5.89999 22.36 5.89999 21.82V20.37C4.87999 20.37 4.03 20.03 3.44 19.44C2.84 18.84 2.5 17.99 2.5 16.97V12.9C2.5 11 3.68 9.69002 5.5 9.52002C5.63 9.51002 5.75999 9.5 5.89999 9.5H12.69C14.73 9.5 16.09 10.86 16.09 12.9Z" stroke="#808080" stroke-width="1.5" stroke-miterlimit="10" stroke-linecap="round" stroke-linejoin="round"/>
</svg>