<svg xmlns="http://www.w3.org/2000/svg" width="12" height="13" viewBox="0 0 12 13" fill="none">
  <g clip-path="url(#clip0_1156_4167)">
    <path d="M11.0007 9.17294V10.6729C11.0013 10.8122 10.9727 10.95 10.917 11.0776C10.8612 11.2052 10.7793 11.3197 10.6767 11.4139C10.5741 11.508 10.453 11.5797 10.3211 11.6243C10.1892 11.6689 10.0494 11.6855 9.9107 11.6729C8.37212 11.5058 6.8942 10.98 5.5957 10.1379C4.38761 9.37027 3.36337 8.34603 2.5957 7.13794C1.75069 5.83354 1.22482 4.34844 1.0607 2.80294C1.0482 2.66467 1.06464 2.52532 1.10895 2.39375C1.15326 2.26218 1.22448 2.14128 1.31808 2.03875C1.41168 1.93622 1.5256 1.85429 1.65259 1.7982C1.77959 1.74211 1.91687 1.71307 2.0557 1.71294H3.5557C3.79835 1.71055 4.03359 1.79648 4.21758 1.95471C4.40156 2.11293 4.52174 2.33266 4.5557 2.57294C4.61901 3.05297 4.73642 3.5243 4.9057 3.97794C4.97297 4.1569 4.98753 4.3514 4.94765 4.53838C4.90777 4.72536 4.81513 4.89699 4.6807 5.03294L4.0457 5.66794C4.75748 6.91971 5.79393 7.95616 7.0457 8.66794L7.6807 8.03294C7.81664 7.89851 7.98828 7.80586 8.17526 7.76599C8.36224 7.72611 8.55674 7.74067 8.7357 7.80794C9.18934 7.97721 9.66067 8.09463 10.1407 8.15794C10.3836 8.1922 10.6054 8.31454 10.764 8.50169C10.9225 8.68883 11.0068 8.92773 11.0007 9.17294Z" stroke="white" stroke-linecap="round" stroke-linejoin="round"/>
  </g>
  <defs>
    <clipPath id="clip0_1156_4167">
      <rect width="12" height="12" fill="white" transform="translate(0 0.712891)"/>
    </clipPath>
  </defs>
</svg>