<svg xmlns="http://www.w3.org/2000/svg" width="64" height="65" viewBox="0 0 64 65" fill="none">
  <path d="M56.0267 30.4199V42.3932C56.0267 54.3666 51.2533 59.1667 39.2533 59.1667H24.88C23.3334 59.1667 21.9199 59.0867 20.6133 58.9001" stroke="#333333" stroke-width="1.5" stroke-linecap="round" stroke-linejoin="round"/>
  <path d="M8.10742 41.8867V30.4199" stroke="#333333" stroke-width="1.5" stroke-linecap="round" stroke-linejoin="round"/>
  <path d="M32.0811 32.4997C36.9611 32.4997 40.5611 28.5265 40.0811 23.6465L38.2943 5.83301H25.841L24.0544 23.6465C23.5744 28.5265 27.2011 32.4997 32.0811 32.4997Z" stroke="#333333" stroke-width="1.5" stroke-linecap="round" stroke-linejoin="round"/>
  <path d="M48.8809 32.4997C54.2675 32.4997 58.2142 28.1263 57.6808 22.7663L56.9341 15.4329C55.9741 8.49961 53.3075 5.83301 46.3208 5.83301H38.1875L40.0542 24.5264C40.5342 28.9264 44.4809 32.4997 48.8809 32.4997Z" stroke="#333333" stroke-width="1.5" stroke-linecap="round" stroke-linejoin="round"/>
  <path d="M15.1208 32.4997C19.5208 32.4997 23.4941 28.9264 23.9207 24.5264L24.5075 18.6331L25.7874 5.83301H17.6541C10.6675 5.83301 8.00084 8.49961 7.04084 15.4329L6.29409 22.7663C5.76076 28.1263 9.73409 32.4997 15.1208 32.4997Z" stroke="#333333" stroke-width="1.5" stroke-linecap="round" stroke-linejoin="round"/>
  <path d="M23.9993 51.1667C23.9993 53.1667 23.4393 55.0602 22.4526 56.6602C21.946 57.5135 21.3326 58.2867 20.6126 58.9001C20.5326 59.0067 20.4527 59.0867 20.346 59.1667C18.4794 60.8467 16.026 61.8333 13.3327 61.8333C10.0793 61.8333 7.1726 60.3666 5.2526 58.0732C5.19927 57.9932 5.11941 57.94 5.06608 57.86C4.74608 57.4867 4.45273 57.0868 4.21273 56.6602C3.22606 55.0602 2.66602 53.1667 2.66602 51.1667C2.66602 47.8067 4.21268 44.7933 6.66602 42.8467C7.11935 42.4733 7.59929 42.1534 8.10596 41.8867C9.65262 41.0067 11.4393 40.5 13.3327 40.5C15.9993 40.5 18.3993 41.4599 20.266 43.0866C20.586 43.3266 20.8793 43.6201 21.146 43.9134C22.906 45.8334 23.9993 48.3667 23.9993 51.1667Z" stroke="#333333" stroke-width="1.5" stroke-miterlimit="10" stroke-linecap="round" stroke-linejoin="round"/>
  <path d="M17.306 51.1133H9.35938" stroke="#333333" stroke-width="1.5" stroke-miterlimit="10" stroke-linecap="round" stroke-linejoin="round"/>
  <path d="M13.332 47.2197V55.193" stroke="#333333" stroke-width="1.5" stroke-miterlimit="10" stroke-linecap="round" stroke-linejoin="round"/>
</svg>